<?xml version="1.0" encoding="UTF-8"?>
<svg width="11px" height="16px" viewBox="0 0 11 16" version="1.1" xmlns="http://www.w3.org/2000/svg" xmlns:xlink="http://www.w3.org/1999/xlink">
    <!-- Generator: Sketch 41.1 (35376) - http://www.bohemiancoding.com/sketch -->
    <title>icn-user--white</title>
    <desc>Created with Sketch.</desc>
    <defs></defs>
    <g id="Symbols" stroke="none" stroke-width="1" fill="none" fill-rule="evenodd">
        <g id="Navbar--red" transform="translate(-263.000000, -8.000000)" fill="#FFFFFF">
            <g id="Group-3">
                <g transform="translate(263.000000, 8.000000)">
                    <g id="icn-user--white">
                        <g id="Group">
                            <g>
                                <path d="M5.5,1.88235294 C7.01616667,1.88235294 8.25,3.14917647 8.25,4.70588235 C8.25,6.26258824 7.01616667,7.52941176 5.5,7.52941176 C3.98383333,7.52941176 2.75,6.26258824 2.75,4.70588235 C2.75,3.14917647 3.98383333,1.88235294 5.5,1.88235294 L5.5,1.88235294 Z M5.5,0 C2.96633333,0 0.916666667,2.10635294 0.916666667,4.70588235 C0.916666667,7.30541176 2.96633333,9.41176471 5.5,9.41176471 C8.03366667,9.41176471 10.0833333,7.30541176 10.0833333,4.70588235 C10.0833333,2.10635294 8.03366667,0 5.5,0 Z" id="Shape"></path>
                                <path d="M5.5,12.2352941 C7.35258333,12.2352941 8.52591667,12.9609412 8.96775,13.5952941 C8.34166667,13.84 7.16283333,14.1176471 5.5,14.1176471 C3.68133333,14.1176471 2.56116667,13.8305882 2.00016667,13.6075294 C2.42091667,12.9345882 3.62908333,12.2352941 5.5,12.2352941 L5.5,12.2352941 Z M5.5,10.3529412 C2.0625,10.3529412 0,12.2352941 0,14.1176471 C0,15.0588235 2.0625,16 5.5,16 C8.72483333,16 11,15.0588235 11,14.1176471 C11,13.1764706 8.84216667,10.3529412 5.5,10.3529412 Z" id="Shape"></path>
                            </g>
                        </g>
                    </g>
                </g>
            </g>
        </g>
    </g>
</svg>