<?xml version="1.0" encoding="UTF-8"?>
<svg width="72px" height="19px" viewBox="0 0 72 19" version="1.1" xmlns="http://www.w3.org/2000/svg" xmlns:xlink="http://www.w3.org/1999/xlink">
    <!-- Generator: Sketch 41.1 (35376) - http://www.bohemiancoding.com/sketch -->
    <title>kagami</title>
    <desc>Created with Sketch.</desc>
    <defs></defs>
    <g id="Symbols" stroke="none" stroke-width="1" fill="none" fill-rule="evenodd">
        <g id="Navbar--red" transform="translate(-123.000000, -7.000000)" fill="#FFFFFF">
            <g id="Group-2">
                <g transform="translate(122.000000, 7.000000)">
                    <path d="M12.8039983,2.912 C13.1639983,1.448 10.0439983,-0.472 9.32399833,0.8 C8.45999833,4.28 6.32399833,6.608 4.90799833,7.808 C4.95599833,6.68 5.00399833,5.528 5.02799833,4.376 C5.14799833,0.152 2.33999833,0.488 1.33199833,0.776 C1.06799833,0.824 0.971998331,1.04 0.971998331,1.136 C1.57199833,3.848 1.66799833,16.928 1.85999833,17.888 C1.95599833,17.888 2.02799833,17.624 2.14799833,17.552 C2.19599833,17.528 2.38799833,17.672 2.38799833,17.672 L2.67599833,17.192 L2.86799833,17.192 C2.86799833,17.192 3.03599833,16.784 3.08399833,16.712 C3.25199833,16.52 3.56399833,16.424 3.56399833,16.424 C3.56399833,16.424 3.89999833,15.632 4.06799833,15.44 C4.30799833,15.008 4.47599833,14.744 4.47599833,14.744 C4.47599833,14.744 4.59599833,13.328 4.71599833,11.336 C5.24399833,11.096 5.81999833,10.736 6.41999833,10.352 C7.66799833,11.816 9.73199833,15.344 10.2839983,17.504 L10.4999983,17.744 C10.4999983,17.744 11.0039983,17.624 11.1719983,17.624 C11.3399983,17.6 11.6039983,17.096 11.6039983,17.096 C11.6039983,17.096 11.6759983,17.168 11.7239983,17.24 C12.0599983,16.184 11.1239983,13.088 11.1239983,13.088 C11.1239983,13.088 12.0599983,14.696 11.9879983,16.952 C12.6359983,14.552 10.8839983,10.184 9.01199833,8.312 C10.8119983,6.68 12.3959983,4.688 12.8039983,2.912 Z M13.4866656,11.552 C13.4626656,12.584 13.9186656,13.448 15.0226656,13.256 C17.0866656,12.872 19.8946656,12.56 22.3666656,13.256 L22.5826656,13.4 C22.5826656,13.4 22.8946656,12.656 22.9666656,12.464 C23.0866656,12.68 23.1826656,12.896 23.1826656,12.896 L23.4466656,12.68 L23.6626656,12.8 L23.9266656,12.968 L24.0946656,12.704 C24.0946656,12.704 24.4546656,13.088 24.4786656,13.088 C22.5826656,8.048 21.8626656,3.728 21.6466656,2.192 C21.4786656,1.088 20.5906656,0.776 19.6546656,0.8 C19.1026656,0.416 17.9986656,0.344 16.0306656,0.632 C15.5026656,5 14.3266656,8.432 13.1986656,11.216 C13.3426656,11.216 13.4146656,11.384 13.4866656,11.552 Z M17.3506656,9.368 C17.8546656,8.384 18.3346656,7.352 18.7666656,6.248 C19.1986656,7.4 19.6786656,8.624 20.2066656,9.848 C19.3426656,9.608 18.3346656,9.416 17.3506656,9.368 Z M24.1426656,15.584 L24.3586656,15.536 L24.0226656,15.128 C24.0226656,15.128 24.1906656,15.2 24.1426656,15.152 C23.3986656,13.856 15.8146656,13.208 13.2946656,14.672 C12.5986656,16.232 13.0786656,18.536 14.7586656,17.984 C16.7506656,17.336 21.4306656,16.784 23.9986656,17.144 L24.2146656,17.264 C24.2146656,17.264 24.4306656,16.448 24.4786656,16.28 C24.5266656,16.112 24.1426656,15.584 24.1426656,15.584 Z M37.6893328,10.232 C37.8573328,9.248 37.4493328,7.16 36.4653328,7.04 C34.3773328,6.752 29.8413328,7.52 28.2333328,7.712 C28.2573328,7.808 28.3533328,7.856 28.5213328,7.904 C28.5933328,7.904 30.6333328,7.592 32.0493328,7.664 C29.8893328,7.976 28.7853328,8.192 28.8573328,8.264 C29.4573328,9.032 30.3213328,9.992 31.3053328,10.28 C31.4733328,10.28 34.4253328,10.592 36.1773328,10.712 C35.2413328,11.96 33.5373328,13.28 31.5213328,13.28 C28.9293328,13.28 27.0813328,11.144 27.1533328,9.632 C27.2493328,6.656 30.4173328,3.128 34.2333328,5.072 C35.0013328,4.76 35.5533328,3.104 35.5773328,2.048 C35.6493328,-1.024 25.5453328,0.08 25.2333328,9.272 C25.0653328,14.528 28.4493328,16.928 31.6893328,16.928 C35.4813328,16.928 38.0733328,13.952 37.6893328,10.232 Z M38.804,11.552 C38.78,12.584 39.236,13.448 40.34,13.256 C42.404,12.872 45.212,12.56 47.684,13.256 L47.9,13.4 C47.9,13.4 48.212,12.656 48.284,12.464 C48.404,12.68 48.5,12.896 48.5,12.896 L48.764,12.68 L48.98,12.8 L49.244,12.968 L49.412,12.704 C49.412,12.704 49.772,13.088 49.796,13.088 C47.9,8.048 47.18,3.728 46.964,2.192 C46.796,1.088 45.908,0.776 44.972,0.8 C44.42,0.416 43.316,0.344 41.348,0.632 C40.82,5 39.644,8.432 38.516,11.216 C38.66,11.216 38.732,11.384 38.804,11.552 Z M42.668,9.368 C43.172,8.384 43.652,7.352 44.084,6.248 C44.516,7.4 44.996,8.624 45.524,9.848 C44.66,9.608 43.652,9.416 42.668,9.368 Z M49.46,15.584 L49.676,15.536 L49.34,15.128 C49.34,15.128 49.508,15.2 49.46,15.152 C48.716,13.856 41.132,13.208 38.612,14.672 C37.916,16.232 38.396,18.536 40.076,17.984 C42.068,17.336 46.748,16.784 49.316,17.144 L49.532,17.264 C49.532,17.264 49.748,16.448 49.796,16.28 C49.844,16.112 49.46,15.584 49.46,15.584 Z M66.2466672,4.496 C66.2226672,2.384 66.3186672,1.472 66.0066672,0.824 C65.4546672,-0.28 63.0546672,0.056 62.0946672,0.656 C62.0946672,0.8 62.0946672,0.968 62.1186672,1.184 C61.4706672,2.48 59.7666672,6.032 58.4466672,9.608 C57.9426672,7.664 57.0786672,4.568 56.1186672,1.256 C55.7826672,0.152 54.3666672,-0.064 53.0706672,0.2 C52.0866672,-0.04 51.1266672,0.296 51.1266672,0.296 C51.1746672,0.488 51.1986672,0.728 51.2226672,1.016 C51.2226672,1.016 51.1986672,1.04 51.1746672,1.04 C51.1986672,1.064 51.2226672,1.088 51.2226672,1.112 C51.5586672,4.688 51.0546672,14.408 50.7666672,17.36 C50.9106672,17.36 51.0546672,16.832 51.2466672,16.736 C51.4626672,16.64 51.8466672,16.952 51.8466672,16.952 L52.0386672,16.568 L52.6626672,16.376 L53.5746672,14.768 L53.8866672,14.816 C53.8866672,14.816 54.3426672,12.08 54.7266672,8.48 C55.7346672,10.88 56.6706672,13.256 57.2466672,14.576 C57.4626672,16.736 59.7186672,15.92 59.8866672,15.416 C60.6546672,13.352 61.8786672,9.896 62.6946672,7.328 C63.1986672,11.048 64.0866672,15.272 65.3826672,17.624 C65.4546672,17.6 65.4306672,17.384 65.5026672,17.36 C65.6226672,17.288 65.8866672,17.336 65.8866672,17.336 L65.9346672,16.784 L66.2466672,16.736 L66.4386672,16.016 L66.5346672,15.416 L66.7746672,15.368 L67.0146672,14.504 C67.0146672,14.504 66.3186672,9.8 66.2466672,4.496 Z M69.2573344,0.368 C69.0173344,0.416 68.8973344,0.632 68.9213344,0.728 C69.4733344,3.584 69.4013344,17.096 69.5693344,18.104 C69.6653344,18.104 69.8813344,17.84 69.8813344,17.84 L70.0733344,17.192 L70.2653344,17.36 L70.6733344,16.808 L71.3693344,16.4 L71.6813344,15.512 L71.9693344,15.44 L72.0893344,14.84 L72.2573344,15.056 C72.2573344,15.056 72.7613344,9.224 72.9533344,4.256 C73.0973344,-0.184 70.3133344,0.104 69.2573344,0.368 Z" id="kagami"></path>
                </g>
            </g>
        </g>
    </g>
</svg>