<?xml version="1.0" encoding="UTF-8"?>
<svg width="17px" height="16px" viewBox="0 0 17 16" version="1.1" xmlns="http://www.w3.org/2000/svg" xmlns:xlink="http://www.w3.org/1999/xlink">
    <!-- Generator: Sketch 41.1 (35376) - http://www.bohemiancoding.com/sketch -->
    <title>icn-logout--white</title>
    <desc>Created with Sketch.</desc>
    <defs></defs>
    <g id="Symbols" stroke="none" stroke-width="1" fill="none" fill-rule="evenodd">
        <g id="Navbar--red" transform="translate(-295.000000, -8.000000)" fill="#FFFFFF">
            <g id="Group-4">
                <g transform="translate(295.000000, 8.000000)">
                    <g id="icn-logout--white">
                        <g transform="translate(8.500000, 8.000000) scale(1, -1) translate(-8.500000, -8.000000) " id="Shape">
                            <path d="M15.90435,6.04088889 C15.8695,6.00444444 12.4576,2.4 10.81965,0.577777778 C10.46265,0.209777778 9.9705,0 9.47155,0 C8.46685,0 7.65,0.796444444 7.65,1.77777778 L0.85,1.77777778 C0.37995,1.77777778 0,2.176 0,2.66666667 L0,15.1111111 C0,15.6017778 0.37995,16 0.85,16 L12.75,16 C13.22005,16 13.6,15.6017778 13.6,15.1111111 L13.6,9.73777778 C14.8189,8.43911111 15.8848,7.312 15.90435,7.29244444 C16.2333,6.94577778 16.2333,6.38755556 15.90435,6.04088889 L15.90435,6.04088889 Z M9.58715,11.5031111 C9.56845,11.5271111 9.5319,11.5555556 9.47155,11.5555556 C9.40865,11.5555556 9.3687,11.5351111 9.34915,11.52 L9.34915,8 L8.49915,8 C6.9938,8.03022222 5.66355,8.60444444 4.4591,9.74044444 C4.8246,7.77155556 5.8191,5.33333333 8.49915,5.33333333 L9.34915,5.33333333 L9.34915,1.81511111 C9.37295,1.79644444 9.4095,1.77777778 9.47155,1.77777778 C9.54805,1.77777778 9.60075,1.82222222 9.60245,1.82222222 C10.82305,3.17777778 13.0458,5.544 14.1049,6.66666667 C13.88985,6.89511111 10.4142,10.5973333 9.58715,11.5031111 L9.58715,11.5031111 Z M1.7,14.2222222 L1.7,3.55555556 L8.5,3.55555556 L8.5,4.44444444 C4.539,4.44444444 3.4,8.77422222 3.4,12 L3.4,12.4444444 C4.83735,10.1528889 6.46,8.93066667 8.5,8.88888889 L8.5,11.5555556 C8.5,12.0453333 8.9352,12.4444444 9.47155,12.4444444 C9.78095,12.4444444 10.04615,12.304 10.2221,12.0968889 C10.68025,11.5946667 11.2778,10.9493333 11.9017,10.2808889 L11.9017,14.2222222 L1.7,14.2222222 L1.7,14.2222222 Z"></path>
                        </g>
                    </g>
                </g>
            </g>
        </g>
    </g>
</svg>